<svg width="763" height="493" viewBox="0 0 763 493" fill="none" xmlns="http://www.w3.org/2000/svg">
<g clip-path="url(#clip0_1146_53955)">
<path d="M18.83 314.67H0V191.82H18.83V197.28C18.83 202.21 19.47 206.96 20.77 211.54C22.06 216.12 24 220.16 26.58 223.68C29.16 227.2 32.39 230.05 36.26 232.22C40.13 234.39 44.59 235.48 49.64 235.48C54.69 235.48 59.29 234.4 63.1 232.22C66.91 230.05 70.11 227.2 72.69 223.68C75.27 220.16 77.21 216.11 78.5 211.54C79.79 206.96 80.44 202.21 80.44 197.28V191.82H99.45V314.67H80.44V238.81C74.22 248.2 63.95 252.89 49.64 252.89C35.33 252.89 25.18 248.2 18.84 238.81V314.67H18.83Z" fill="white"/>
<path d="M164.97 215.52C172.24 215.52 178.81 216.81 184.68 219.39C190.55 221.97 195.53 225.52 199.64 230.04C203.75 234.56 206.91 239.81 209.14 245.79C211.37 251.77 212.48 258.17 212.48 264.97C212.48 271.77 211.36 278.2 209.14 284.24C206.91 290.28 203.74 295.56 199.64 300.08C195.53 304.6 190.54 308.15 184.68 310.73C178.81 313.31 172.24 314.6 164.97 314.6C157.7 314.6 150.95 313.31 145.08 310.73C139.21 308.15 134.23 304.6 130.12 300.08C126.01 295.56 122.87 290.28 120.7 284.24C118.53 278.2 117.44 271.77 117.44 264.97C117.44 258.17 118.52 251.77 120.7 245.79C122.87 239.81 126.01 234.56 130.12 230.04C134.23 225.52 139.21 221.97 145.08 219.39C150.95 216.81 157.58 215.52 164.97 215.52ZM164.97 298.07C169.66 298.07 173.8 297.19 177.38 295.43C180.96 293.67 183.98 291.29 186.44 288.3C188.9 285.31 190.78 281.82 192.07 277.83C193.36 273.84 194.01 269.56 194.01 264.98C194.01 260.4 193.36 256.12 192.07 252.13C190.78 248.14 188.9 244.65 186.44 241.66C183.98 238.67 180.95 236.29 177.38 234.53C173.8 232.77 169.66 231.89 164.97 231.89C160.28 231.89 156.14 232.77 152.56 234.53C148.98 236.29 145.96 238.67 143.5 241.66C141.04 244.65 139.16 248.14 137.87 252.13C136.58 256.12 135.93 260.4 135.93 264.98C135.93 269.56 136.57 273.84 137.87 277.83C139.16 281.82 141.04 285.31 143.5 288.3C145.96 291.29 148.98 293.67 152.56 295.43C156.14 297.19 160.27 298.07 164.97 298.07Z" fill="white"/>
<path d="M278.61 215.35C285.06 215.35 291.13 216.38 296.83 218.43C302.52 220.48 307.51 223.59 311.79 227.76C316.07 231.93 319.45 237.09 321.91 243.25C324.37 249.41 325.61 256.6 325.61 264.81V312.68C325.61 320.42 324.29 327.23 321.65 333.1C319.01 338.97 315.49 343.86 311.09 347.8C306.69 351.73 301.7 354.66 296.13 356.6C290.56 358.54 284.78 359.5 278.79 359.5C274.1 359.5 269.37 358.85 264.62 357.56C259.87 356.27 255.41 354.36 251.24 351.84C247.07 349.32 243.32 346.15 239.98 342.34C238.24 340.35 236.66 338.18 235.26 335.83C233.05 332.13 234.11 327.35 237.7 324.99L245.7 319.72C247.11 323.47 248.96 326.73 251.24 329.49C253.53 332.25 256.08 334.51 258.9 336.27C261.72 338.03 264.68 339.35 267.79 340.23C270.9 341.11 274.04 341.55 277.21 341.55C281.08 341.55 284.84 340.93 288.47 339.7C292.1 338.47 295.36 336.71 298.24 334.42C301.11 332.13 303.4 329.29 305.1 325.88C306.8 322.48 307.65 318.66 307.65 314.44V298.42C303.89 303.58 299.08 307.51 293.22 310.21C287.35 312.91 280.9 314.26 273.86 314.26C268.23 314.26 262.83 313.29 257.67 311.36C252.5 309.42 247.96 306.43 244.03 302.38C240.1 298.33 236.96 293.2 234.61 286.98C232.26 280.76 231.09 273.37 231.09 264.8C231.09 256.23 232.35 249.22 234.87 243.06C237.39 236.9 240.79 231.74 245.08 227.57C249.36 223.41 254.41 220.33 260.22 218.33C266.03 216.34 272.16 215.34 278.61 215.34V215.35ZM278.79 298.42C282.9 298.42 286.71 297.72 290.23 296.31C293.75 294.9 296.8 292.79 299.38 289.97C301.96 287.15 303.98 283.63 305.45 279.41C306.92 275.19 307.65 270.32 307.65 264.8C307.65 259.28 306.89 254.5 305.36 250.46C303.83 246.41 301.78 243.04 299.2 240.34C296.62 237.64 293.57 235.62 290.05 234.27C286.53 232.92 282.72 232.25 278.61 232.25C274.5 232.25 270.84 232.93 267.26 234.27C263.68 235.62 260.6 237.64 258.02 240.34C255.44 243.04 253.38 246.41 251.86 250.46C250.33 254.51 249.57 259.29 249.57 264.8C249.57 270.31 250.3 275.36 251.77 279.58C253.24 283.8 255.29 287.3 257.93 290.05C260.57 292.81 263.65 294.89 267.17 296.3C270.69 297.71 274.56 298.41 278.79 298.41V298.42Z" fill="white"/>
<path d="M428.19 270.79H362.62C363.44 275.48 364.85 279.5 366.84 282.85C368.83 286.19 371.18 288.98 373.88 291.21C376.58 293.44 379.57 295.08 382.86 296.14C386.14 297.2 389.43 297.72 392.72 297.72C395.54 297.72 398.35 297.34 401.17 296.58C403.99 295.82 406.57 294.73 408.91 293.32C411.26 291.91 413.34 290.15 415.16 288.04C415.7 287.41 416.2 286.77 416.67 286.1C418.72 283.2 422.49 282.09 425.83 283.29L435.13 286.63C433.37 291.32 431.02 295.4 428.09 298.86C425.16 302.32 421.81 305.2 418.06 307.48C414.3 309.77 410.29 311.47 406 312.58C401.72 313.69 397.35 314.25 392.89 314.25C386.91 314.25 380.98 313.19 375.11 311.08C369.24 308.97 364.02 305.86 359.45 301.75C354.87 297.64 351.18 292.51 348.36 286.35C345.54 280.19 344.14 273 344.14 264.79C344.14 256.58 345.46 249.19 348.1 242.97C350.74 236.75 354.23 231.59 358.57 227.48C362.91 223.37 367.87 220.32 373.44 218.33C379.01 216.34 384.67 215.34 390.42 215.34C396.17 215.34 401.77 216.31 407.23 218.24C412.69 220.17 417.55 223.08 421.84 226.95C426.12 230.82 429.58 235.6 432.22 241.29C434.86 246.98 436.18 253.58 436.18 261.09V262.77C436.18 267.19 432.6 270.77 428.18 270.77L428.19 270.79ZM418.07 255.47C417.6 251.48 416.49 248.02 414.73 245.09C412.97 242.16 410.83 239.72 408.31 237.79C405.79 235.85 402.94 234.39 399.77 233.39C396.6 232.39 393.43 231.89 390.27 231.89C387.11 231.89 383.96 232.39 380.85 233.39C377.74 234.39 374.89 235.85 372.31 237.79C369.73 239.73 367.59 242.16 365.89 245.09C364.19 248.02 363.04 251.49 362.46 255.47H418.08H418.07Z" fill="white"/>
<path d="M473.28 264.8C473.28 270.2 474.16 274.98 475.92 279.14C477.68 283.31 479.97 286.8 482.78 289.61C485.6 292.43 488.79 294.57 492.37 296.03C495.95 297.5 499.56 298.23 503.19 298.23C508.35 298.23 513.22 296.79 517.8 293.92C520.85 292 523.46 289.37 525.62 286.02C527.63 282.91 531.44 281.49 534.93 282.74L545.79 286.62C543.91 291.31 541.42 295.39 538.31 298.85C535.2 302.31 531.77 305.22 528.01 307.56C524.25 309.91 520.24 311.67 515.95 312.84C511.67 314.01 507.3 314.6 502.84 314.6C496.86 314.6 490.99 313.54 485.24 311.43C479.49 309.32 474.36 306.18 469.84 302.01C465.32 297.85 461.68 292.65 458.93 286.43C456.17 280.21 454.79 273 454.79 264.78C454.79 256.56 456.17 249.35 458.93 243.13C461.68 236.91 465.32 231.72 469.84 227.55C474.36 223.39 479.49 220.25 485.24 218.13C490.99 216.02 496.86 214.96 502.84 214.96C507.3 214.96 511.67 215.55 515.95 216.72C520.23 217.89 524.25 219.62 528.01 221.91C531.76 224.2 535.2 227.07 538.31 230.53C541.42 233.99 543.91 238.07 545.79 242.76L535.26 246.63C531.72 247.93 527.67 246.71 525.62 243.54C523.46 240.19 520.85 237.56 517.8 235.64C513.22 232.77 508.35 231.33 503.19 231.33C499.43 231.33 495.77 232.06 492.19 233.53C488.61 235 485.41 237.14 482.6 239.95C479.78 242.77 477.52 246.26 475.82 250.42C474.12 254.59 473.27 259.37 473.27 264.76L473.28 264.8Z" fill="white"/>
<path d="M612.79 216.35C617.72 216.35 622.41 217.29 626.87 219.17C631.33 221.05 635.29 223.83 638.75 227.53C642.21 231.23 644.94 235.83 646.93 241.35C648.92 246.87 649.92 253.32 649.92 260.71V313.69H631.79V260.71C631.79 250.62 629.5 243.29 624.93 238.71C620.35 234.13 614.31 231.85 606.8 231.85C599.29 231.85 593.22 234.14 588.58 238.71C583.94 243.29 581.63 250.62 581.63 260.71V313.69H563.68V186.87C563.68 182.45 567.26 178.87 571.68 178.87H581.63V232.02C585.27 226.74 589.84 222.81 595.36 220.23C600.87 217.65 606.68 216.36 612.78 216.36L612.79 216.35Z" fill="white"/>
<path d="M715.69 214.87C722.14 214.87 728.21 215.93 733.91 218.04C739.6 220.15 744.59 223.26 748.87 227.37C753.15 231.48 756.53 236.61 758.99 242.77C761.45 248.93 762.69 256.12 762.69 264.33V314.43H752.73C748.31 314.43 744.73 310.84 744.73 306.42V298.12C740.98 303.17 736.17 307.04 730.31 309.74C724.44 312.44 717.99 313.79 710.95 313.79C705.32 313.79 699.92 312.82 694.76 310.89C689.59 308.95 685.05 305.99 681.12 302C677.19 298.01 674.05 292.88 671.7 286.6C669.35 280.32 668.18 272.9 668.18 264.34C668.18 255.78 669.44 248.76 671.96 242.6C674.48 236.44 677.88 231.31 682.17 227.2C686.45 223.09 691.5 220.01 697.31 217.96C703.12 215.91 709.25 214.88 715.7 214.88L715.69 214.87Z" fill="white"/>
<path d="M741.94 274.02C744.06 273.31 746.1 275.47 745.17 277.48C745.17 277.5 745.15 277.52 745.15 277.53C743.1 281.93 740.51 285.72 737.4 288.93C734.28 292.14 730.78 294.58 726.9 296.27C723.02 297.95 718.84 298.78 714.35 298.75C712.41 298.73 710.43 298.51 708.42 298.08C705.73 297.5 704.21 295.6 705.4 292.15L708.17 286.2C708.47 285.55 709.03 285.06 709.71 284.83L710 284.73L741.94 274.03V274.02ZM697.3 288.57L696.67 289.91C695.83 291.72 695.35 293.45 693.38 292.92C691.41 292.39 688.5 289.54 687.33 288.36C684.12 285.09 682.01 280.34 681.04 277.32C680.21 274.75 679.17 270.79 679.05 266.69C678.97 264.06 679.66 260.8 681.59 256.47C682.66 254.07 684.96 253.31 685.73 255.25L697.41 284.94C697.87 286.12 697.84 287.44 697.3 288.58V288.57ZM713.33 249.4L709.07 238.57C708.59 237.35 707.52 236.41 706.22 236.16C702.39 235.42 700.03 238.66 701.18 241.56L708.66 260.57C709.16 261.84 709.12 263.24 708.55 264.47L704.02 274.18C703.66 274.96 702.53 274.91 702.22 274.11C702.22 274.11 692.22 248.79 689.96 243.24C689.69 242.57 690.08 241.95 690.24 241.26C690.55 239.92 691.61 239.02 692.26 238.13C694.83 234.54 699.23 231.93 703.1 230.25C706.98 228.57 710.9 228.4 715.39 228.44C717.42 228.46 719.53 228.69 721.7 229.7C723.03 230.32 723.9 231.59 723.29 232.89L715.54 249.51C715.1 250.45 713.73 250.4 713.34 249.43L713.33 249.4ZM746.53 263.49C739.77 265.8 722.16 271.97 716 273.91C715.17 274.17 714.42 272.35 714.78 271.57L719.4 261.66C719.67 261.08 720.18 260.66 720.8 260.51C724.6 259.54 739.38 254.77 744.95 252.96C746.18 252.56 747.51 253.21 747.97 254.42C748.38 255.52 748.6 258.16 748.83 259.7C749.08 261.36 748.12 262.95 746.53 263.49ZM741.55 240.62C742.21 241.4 742.74 243 743.35 243.88C743.65 244.31 743.45 244.91 742.95 245.07L726.07 250.44C725.44 250.65 724.85 250 725.13 249.4L731.73 235.24C732.06 234.54 732.85 234.48 733.59 234.75C736.42 235.8 739.94 238.73 741.55 240.62Z" fill="#70892E"/>
</g>
<defs>
<clipPath id="clip0_1146_53955">
<rect width="762.69" height="492.53" fill="white"/>
</clipPath>
</defs>
</svg>
